<?xml version="1.0" encoding="UTF-8" standalone="no"?>
<!DOCTYPE svg PUBLIC "-//W3C//DTD SVG 1.1//EN" "http://www.w3.org/Graphics/SVG/1.1/DTD/svg11.dtd">
<svg width="100%" height="100%" viewBox="0 0 482 800" version="1.1" xmlns="http://www.w3.org/2000/svg" xmlns:xlink="http://www.w3.org/1999/xlink" xml:space="preserve" xmlns:serif="http://www.serif.com/" style="fill-rule:evenodd;clip-rule:evenodd;stroke-linejoin:round;stroke-miterlimit:2;">
    <g transform="matrix(1,0,0,1,-159.295208,0)">
        <g transform="matrix(2.212848,0,0,2.212848,0.001106,0)">
            <path d="M289.539,0L71.986,0L71.986,361.525L289.539,361.525L289.539,0ZM241.363,323.194L120.167,323.194L120.167,306.565L241.363,306.565L241.363,323.194ZM255.909,285.783L105.619,285.783L105.619,269.153L255.909,269.153L255.909,285.783ZM214.88,155.539L235.967,220.44L180.763,180.324L125.555,220.44L146.642,155.539L91.434,115.43L159.672,115.43L180.762,50.532L201.849,115.43L270.09,115.43L214.88,155.539Z" style="fill:rgb(245,240,232);fill-rule:nonzero;"/>
        </g>
    </g>
</svg>
